/* XPM */
static char *_c0280080bb647d8feec05cc747e59b9q2AM8qlc6z9eDyKT[] = {
/* columns rows colors chars-per-pixel */
"30 30 162 2 ",
"   c #754E54",
".  c #7A4F5D",
"X  c #6C555D",
"o  c #6D585E",
"O  c #735556",
"+  c #795357",
"@  c #735955",
"#  c #74545D",
"$  c #7B545C",
"%  c #74595B",
"&  c #7C5C5C",
"*  c #665663",
"=  c #6C5664",
"-  c #665965",
";  c #6C5A65",
":  c #6D576A",
">  c #665A6A",
",  c #6C5A6A",
"<  c #735563",
"1  c #7A5462",
"2  c #725A65",
"3  c #7B5962",
"4  c #715769",
"5  c #715A6A",
"6  c #71616B",
"7  c #6D6071",
"8  c #80565E",
"9  c #8B616C",
"0  c #93616B",
"q  c #876774",
"w  c #8C6776",
"e  c #856B75",
"r  c #8B6B75",
"t  c #8B6B7B",
"y  c #926471",
"u  c #9B6573",
"i  c #926974",
"p  c #9E6F77",
"a  c #916878",
"s  c #9C6D7B",
"d  c #957577",
"f  c #9C7276",
"g  c #957976",
"h  c #94747D",
"j  c #9D747C",
"k  c #95787A",
"l  c #9C797F",
"z  c #A46F77",
"x  c #A46F7E",
"c  c #A37377",
"v  c #A57279",
"b  c #A67378",
"n  c #A6717B",
"m  c #A4727B",
"M  c #A5727B",
"N  c #A6737A",
"B  c #A67179",
"V  c #A17479",
"C  c #A37578",
"Z  c #A07678",
"A  c #A1747B",
"S  c #A3747A",
"D  c #A2757A",
"F  c #A57478",
"G  c #A5747A",
"H  c #A0727D",
"J  c #A5737C",
"K  c #A0757C",
"L  c #A3747C",
"P  c #A2757C",
"I  c #A0757E",
"U  c #A0757F",
"Y  c #A3757F",
"T  c #A2747E",
"R  c #A0777F",
"E  c #A2777E",
"W  c #A3737C",
"Q  c #A8767D",
"!  c #A4797E",
"~  c #957383",
"^  c #977681",
"/  c #957783",
"(  c #977784",
")  c #997380",
"_  c #997382",
"`  c #9D7283",
"'  c #9B7580",
"]  c #9B7582",
"[  c #987782",
"{  c #9B7783",
"}  c #9F7581",
"|  c #9E7681",
" . c #9F7780",
".. c #9E7482",
"X. c #9D7782",
"o. c #987684",
"O. c #9C7685",
"+. c #9F7684",
"@. c #9D7786",
"#. c #9C7582",
"$. c #967884",
"%. c #977A82",
"&. c #9A7980",
"*. c #997A80",
"=. c #997A82",
"-. c #9B7A83",
";. c #9D7880",
":. c #9C7980",
">. c #9C7882",
",. c #9C7A83",
"<. c #9E7C8A",
"1. c #A07680",
"2. c #A17680",
"3. c #A17583",
"4. c #A37582",
"5. c #A67781",
"6. c #A27685",
"7. c #A37582",
"8. c #AA7582",
"9. c #A47983",
"0. c #A67883",
"q. c #A17984",
"w. c #A37B84",
"e. c #A57A84",
"r. c #A07D84",
"t. c #A77E84",
"y. c #A27A83",
"u. c #AA7C84",
"i. c #A47B89",
"p. c #A57F8A",
"a. c #A17A89",
"s. c #A98384",
"d. c #A5878F",
"f. c #AE838C",
"g. c #AF868D",
"h. c #A7888D",
"j. c #B48C8A",
"k. c #B4918D",
"l. c #B08C90",
"z. c #B98F90",
"x. c #B59494",
"c. c #BB9494",
"v. c #B79896",
"b. c #BA9997",
"n. c #B79499",
"m. c #B9949B",
"M. c #BC929C",
"N. c #BF969E",
"B. c #BC9599",
"V. c #B7999B",
"C. c #B9989F",
"Z. c #BB9A9C",
"A. c #C09595",
"S. c #C19997",
"D. c #C1959A",
"F. c #C29A9A",
"G. c #C99B9B",
"H. c #C6A09D",
"J. c #C39AA0",
"K. c #C9AEAD",
"L. c #CEB3B2",
"P. c #D3B6B8",
/* pixels */
"; ; ; ; ; = < < ; ; ; ; = ; , , : : : , ; ; ; ; ; = , 5 = = ",
"= ; ; ; ; 5 5 = ; ; ; ; = = , , , , , ; ; ; ; ; ; , = = , , ",
", > > > , : 5 5 ; ; ; ; 4 5 , , , ; ; ; ; ; ; ; = ; = - , 5 ",
"- - > 7 : : = < = = < < < < < = < # # X X o o o 2 ; 5 = : , ",
", ; - - = t ~ <.*.*.>.>.3. .>. .3.Y Y Y j l *.*.e < 2 5 - , ",
"; ; ; = < o.+.j j j j D S S j j N N N N N D j ] ] < = 5 - , ",
"2 ; ; ; < ] 3.Y Y D D G N N D D G N N N N Y Y  ._ < < < = 5 ",
"; = ; 2 < a s 5.Y D D G N J Y Y Y Y Y D Y Y Y  .w < < < = 5 ",
"; = ; 5 < 1 1 $ $ $ $ $ . . 3 # $ $ $ + $ $ $ $ < 2 5 ; ; = ",
"* ; , ; = t ..6. .j j w. .+.< r *.r.j j j j ] / e ; ; ; , ; ",
"; ; ; = < +.3.3.j j w.j i._ < / h >.3.9.H e. .] $.= = - ; ; ",
"2 ; = < 1 i.j S Y Y t.J.M.p.< d.Z.B.N.f.S 9.j +.( < ; ; ; ; ",
"= o 2 2 # 9.J Q c G c.c.c.B.O Z.V.n.c.D.p Y H 3.o.< 5 < = 2 ",
"= ; 2 = # 3.J c G c G.A.A.B.& O O n.j c 0 Q 0 y a.< < 2 < < ",
", , , ; 2 o.5.S c c F.z.z.B.O b.n.H.c.D.c Q Q Y _ < = , , ; ",
"> > , ; < w ..9.9.f s.B.F.d % g b.k.S.u.S Y H 3.q 2 2 ; - - ",
"- , ; = < 1 1 $ $ % O % O % % % @ @ O $ $ $ $ 1 3 X ; ; ; * ",
"; - = t ]  . . .j j h.V.P.K.x.L.L.K.Z.r... .6.+.] %.e X 6 6 ",
"; ; < @.6.7.4.5.9.f Z.B.x.Z.n.x.x.b.Z.9.3.5.7... .h *.# ; X ",
"= 2 # w.s x J J J f D.B.B.c.S.B.n.n.B.S J x x H j j <.% 2 < ",
"2 2 # w.4.8.8.Q Q D c.c.G.c.c.A.S.B.D.N 8.x u 0 e.  3 # < X ",
"2 < < @.3.S x N Q f G.c.j.S.S.c.c.B.D.S N 8.8.H j >.<.% < # ",
"; = 2 h  .j j ! S f B.S.x.b.x.b.x.F.c.! S S H Y  .*.h X X 5 ",
"; ; 2 e *.r.j j D j s.b.v.x.v.v.b.n.s.D Y Y j  .>.^ e 2 ; X ",
"- - ; 2 < # $ $ + &   & O @ & @ O % + $ 8 $   $ < = 2 * ; ; ",
", , ; = 2 r ] >.j R Z.x.b.d O k Z.Z.l.9.Y 9. .>.q = 2 ; ; ; ",
", , - = < h w.j j j g.m.Z.Z.% Z.n.m.g.Y S H j  .o.< = 5 ; - ",
"- , = = < *.@.j i 9 e.8   $ $ j j 9.Y Y Q J H 6.a.< < 5 , - ",
": , = 5 < ] w.6.j 5.s H e.j 1 w.j H N N Q N H 3._ < < : , : ",
"5 , 5 < < r j 3.5.5.5.3.j a 1 9 Y 9.Q N z N J j a < < = 4 , "
};
