/* XPM */
static char *_d973437ca1742c9fad1c919c76b226ePdXdzrXwJBvqcvay[] = {
/* columns rows colors chars-per-pixel */
"32 32 224 2 ",
"   c #592A1E",
".  c #5A271D",
"X  c #4A351D",
"o  c #5A311B",
"O  c #422E2E",
"+  c #4B2C2B",
"@  c #4B2E24",
"#  c #542B25",
"$  c #5C2B24",
"%  c #532E2C",
"&  c #5B2B28",
"*  c #443624",
"=  c #4D3225",
"-  c #4B3927",
";  c #45352B",
":  c #4C352C",
">  c #443D2B",
",  c #4B3B2C",
"<  c #553425",
"1  c #523C26",
"2  c #54342D",
"3  c #5C332C",
"4  c #533A2D",
"5  c #5C3A2B",
"6  c #5B3323",
"7  c #4D2E36",
"8  c #4E2D3D",
"9  c #452E39",
"0  c #542C35",
"q  c #5C2D33",
"w  c #542D3D",
"e  c #5D2B3C",
"r  c #51263A",
"t  c #443334",
"y  c #4C3333",
"u  c #4E3C34",
"i  c #4D323C",
"p  c #45373F",
"a  c #523333",
"s  c #5A3433",
"d  c #533A32",
"f  c #54343B",
"g  c #54393B",
"h  c #5B383B",
"j  c #622622",
"k  c #652B28",
"l  c #62322A",
"z  c #632B33",
"x  c #6A2B3B",
"c  c #62283B",
"v  c #613333",
"b  c #663737",
"n  c #4B4035",
"m  c #514039",
"M  c #3E2E49",
"N  c #3C3D51",
"B  c #3A374A",
"V  c #4E2E44",
"C  c #432B41",
"Z  c #532E42",
"A  c #592B41",
"S  c #522E49",
"D  c #453345",
"F  c #4C3344",
"G  c #443549",
"H  c #4C344A",
"J  c #41384D",
"K  c #533443",
"L  c #513B44",
"P  c #51314A",
"I  c #5B3242",
"U  c #483950",
"Y  c #652F43",
"T  c #604C4E",
"R  c #614D46",
"E  c #65455A",
"W  c #6C4755",
"Q  c #784857",
"!  c #7A505C",
"~  c #74454F",
"^  c #794E63",
"/  c #7F5966",
"(  c #8C4D5D",
")  c #814D51",
"_  c #934B57",
"`  c #83545F",
"'  c #89575B",
"]  c #95535E",
"[  c #9E635F",
"{  c #835364",
"}  c #8B5562",
"|  c #825368",
" . c #8B5669",
".. c #885A67",
"X. c #995868",
"o. c #845A70",
"O. c #A65D64",
"+. c #8D7165",
"@. c #9E6E75",
"#. c #94747B",
"$. c #987774",
"%. c #90666F",
"&. c #A46D6C",
"*. c #A36668",
"=. c #A17163",
"-. c #AC7271",
";. c #BC7C75",
":. c #BA777B",
">. c #BA716B",
",. c #C07673",
"<. c #9E8076",
"1. c #BC8B6D",
"2. c #BC8B7C",
"3. c #BA8876",
"4. c #BE907B",
"5. c #C48A6E",
"6. c #C8866C",
"7. c #C68374",
"8. c #CB8475",
"9. c #C48C73",
"0. c #CC8C73",
"q. c #C3867C",
"w. c #CC867A",
"e. c #C48B7C",
"r. c #CC8B7B",
"t. c #D28971",
"y. c #C59074",
"u. c #C89477",
"i. c #DC9D7C",
"p. c #DFA37F",
"a. c #927081",
"s. c #BA7882",
"d. c #BC8582",
"f. c #BD8D82",
"g. c #BC8D8B",
"h. c #B68786",
"j. c #B79184",
"k. c #BC9184",
"l. c #BB918A",
"z. c #BA9789",
"x. c #B69392",
"c. c #BEB0AD",
"v. c #C18483",
"b. c #C28C83",
"n. c #CC8C83",
"m. c #C28C8A",
"M. c #CA8B88",
"N. c #C4918A",
"B. c #C39283",
"V. c #E29F82",
"C. c #E09E90",
"Z. c #DCA482",
"A. c #DEA48C",
"S. c #DAA88D",
"D. c #CCA999",
"F. c #C7A69B",
"G. c #DDA594",
"H. c #D5A999",
"J. c #E4A483",
"K. c #E2A38A",
"L. c #E4A88D",
"P. c #E6AA95",
"I. c #C6AEAB",
"U. c #D2ACA2",
"Y. c #CBB3AC",
"T. c #C9B4B1",
"R. c #FCBEAC",
"E. c #F9BEA1",
"W. c #E8BEA6",
"Q. c #DEC99C",
"!. c #ECCA9D",
"~. c #EAC49E",
"^. c #F4C49C",
"/. c #FBC39C",
"(. c #F5CA9D",
"). c #FCC99E",
"_. c #DECCBB",
"`. c #EEC5A3",
"'. c #EDCBA5",
"]. c #EAC5AD",
"[. c #E5CEAC",
"{. c #ECCBAC",
"}. c #E4C9A6",
"|. c #F3C6A4",
" X c #FBC4A4",
".X c #F5CAA4",
"XX c #FCCBA3",
"oX c #F4C4AC",
"OX c #FDC5AA",
"+X c #F3CBAB",
"@X c #FDCAAB",
"#X c #ECD4AB",
"$X c #E6D0A9",
"%X c #FAD1A5",
"&X c #F4D4AD",
"*X c #F8D2A7",
"=X c #E6C9B4",
"-X c #EACBB3",
";X c #E6C7BA",
":X c #E4CABC",
">X c #E9CCBB",
",X c #EAC6B7",
"<X c #F6C7B4",
"1X c #FEC6B1",
"2X c #F2CDB3",
"3X c #FCCDB4",
"4X c #F2CABB",
"5X c #FAC6B9",
"6X c #EAD1BC",
"7X c #F3D1B4",
"8X c #DECCC0",
"9X c #EBCBC0",
"0X c #E0D0C0",
"qX c #F2D3C3",
"wX c #EFE5CC",
"eX c #F7E2CC",
"rX c #FDE4CD",
"tX c #F4E3C7",
"yX c #FCE6D3",
"uX c #FDE9D0",
"iX c #F6E4D0",
"pX c #FFF5DC",
"aX c #FFF6E1",
"sX c #FFF9E2",
/* pixels */
"R @ d = 4 , * u t L + v # 2 - , , - : 4 2 a f y 5 X - > ; m O T ",
": Y.:XyXaXeXuX_.c.t x.H.4XrXeXsXrXuX=X=XU.j.+ Y.-XrXtXpXyX8XT.y ",
": :X>X-X[.#X#X[.0Xd j.<XoX+X#XQ.'.+X+X'.+Xk.2 ;X{.&X#X$X[.>X:X: ",
"d ;X-X{.!.!.!.'.>X= f.oX@XXX!.*X(.(.^.XX+X3.5 ;X{.!.!.!.'.{.;Xd ",
"s ,XoX|.%X(.)..X,X3 q.C.1XE.(.(.^.).)./.L.3.# 4X+X.X.X*X|.oX,X4 ",
"# H.3XOX/././. XH.$ n.w.K.E.@XXXXX/. XZ.9.b.& U.+X.X^. XOX3XD.@ ",
"3 l.H.oX1XOX XA.f.. e.r.0.9.y.1.5.y.9.0.r.q.$ f.S. XOXOXR.G.k.6 ",
"2 l.2.b.e.q.e.e.l.3 =.2.e.e.f.f.j.f.f.b.v.&.l f.4.9.9.e.n.q.f.< ",
"4 +.j.l.d.N.d.g.#.9 g % a h Z Z i f a h q q 0 $.j.3.N.m.d.g.$.: ",
"4 = < 3 l $ $ v 8 L i i f 8 S S F H 8 w e 0 K a 3   $ $ b # a u ",
"% g.b.b.q.n.n.&.0 K 7 W Q ..Q Q S E ^ { Q Q w 0 &.e.q.q.2.k.$.2 ",
"v D.5XR.P.7.w.v.I V K ! { ` } Q A ^ {  .! ! 8 h d.r.r.L.1X<XU.s ",
"= qXW.@XOXL.r.b.w H H S w e z x Y e c e w K F w M.8.L.@X|.].>X2 ",
": >X+X.X^.Z.5.N.K H H V W } *.:.s.X.( Q K D G F M.8.V. X+X{.6X= ",
"- pX{.!..XXXu.2.i D H 8 ..) :.,.>.;.] { F B N p f.t././.'.}.pX1 ",
"- yX[..X.X X5.f.i H F 8 ~ ' *.;.;.[ ' ~ H J B p 2.0./..X'.[.uXX ",
"4 ;X{.+X.X|.e.f.f F Z A c x q 2 a f e Y r P F i f.9.|..X'.{.-X< ",
"2 rX+X`..XOXr.d.f K W  .X.( X.` y %.{  . .W K y 2.y.@X@X+X2XrX< ",
"1 [.&X(.XXp.6.n.% 7 / } _ ] :.:.z h.] (  .^ K s e.0.i. X|.7XqX= ",
"X 6X~.(.XXJ.t.w.s f W ` } _ O._ k X.( } { W F 0 w.t.J.XX|.].>Xa ",
"d F.2X`.P.7.w.v.f F 9 F A c x x x c e I F F D f ;.t.6.Z.+X-XF., ",
"7 x.j.4.2.n.n.&.8 D G H E o.{ { | | / E H D G K &.8.0.0.3.z.<.a ",
"A 0 & l $ . j v K G D F F F K i V P H C G U M F b j k j l # s a ",
"e @.f.b.3.B.2.g.#.i f 0 f 7 y g K Z K K i K H a.g.v.M.b.m.g.@.0 ",
"z m.2.e.9.9.9.e.g.& -.v.v.b.f.j.k.f.b.b.v.&.q g.e.r.w.q.n.q.g.& ",
"z m.G. X@X@X XS.2.j 7.w.r.9.u.1.1.9.5.0.w.w.. f.A. XOXOXR.G.k.3 ",
"@ D.3X.X|.^..X+XH.o r.6.K. X.X.X.XXX/.J.0.r.6 H..X(.^.^.@X3XD.= ",
"4 =X{..X*X.X.X'.{.o 9.K.@X^.(.(.(.(.^.@XA.3.6 -X.X(.(.*X|.{.=X1 ",
"4 =X{..X|.|.`.'.-Xo 9. X.X~.(..X*X|.@X3XoXe.& 4X'.!.!.!..X{.=X1 ",
": :X-X{.{.2X7X-X;X5 2.<X{.7X+X`.}.2X2X].<Xf.3 9X{.&X#X[.{.-X;X= ",
"y Y._.rXaXeXyX:XI.+ z.F.6XiX>XuXsXeXrX6XD.z.+ I.:XuXwXsXyX:XY.y ",
"T O n * , , ; u i L + h ; , , - , - , * 4 + g t u * > n ; m O T "
};
